<svg id="Layer_1" data-name="Layer 1" xmlns="http://www.w3.org/2000/svg" viewBox="0 0 355.74 99"><defs><style>.cls-1,.cls-2{fill:#e10098;}.cls-1{fill-rule:evenodd;}</style></defs><path class="cls-1" d="M44.05,6.4,81.38,28v43.1L44.05,92.6,6.73,71.05V28Zm-33.13,24V62L38.33,14.54ZM44.05,13,12.45,67.74H75.66ZM71.47,71.93H16.64L44.05,87.76ZM77.19,62,49.77,14.54,77.19,30.37Z"/><circle class="cls-2" cx="44.05" cy="8.82" r="8.82"/><circle class="cls-2" cx="79.28" cy="29.16" r="8.82"/><circle class="cls-2" cx="79.28" cy="69.84" r="8.82"/><circle class="cls-2" cx="44.05" cy="90.18" r="8.82"/><circle class="cls-2" cx="8.82" cy="69.84" r="8.82"/><circle class="cls-2" cx="8.82" cy="29.16" r="8.82"/><path class="cls-2" d="M132.93,71.12q-7.82,0-12.13-4.5t-4.56-12.06q-.06-1.87-.06-5.94c0-2.7,0-4.68.06-5.93q.26-7.57,4.56-12.07t12.13-4.5a18.35,18.35,0,0,1,8.94,2,14.5,14.5,0,0,1,5.37,4.75,10,10,0,0,1,1.94,4.82v.12a1,1,0,0,1-.38.81,1.4,1.4,0,0,1-.93.32h-1.38a1.15,1.15,0,0,1-.81-.25,2.74,2.74,0,0,1-.5-1,11,11,0,0,0-4.13-5.57,13.22,13.22,0,0,0-8.12-2.25q-5.82,0-9.19,3.19T120.18,43c0,1.25-.06,3.12-.06,5.62s0,4.38.06,5.63q.25,6.75,3.56,9.94t9.19,3.18a13.2,13.2,0,0,0,9.37-3.31q3.57-3.31,3.57-9.81V51.06H135a1.36,1.36,0,0,1-1-.37,1.6,1.6,0,0,1-.37-1.07v-.87a1.34,1.34,0,0,1,.37-1,1.27,1.27,0,0,1,1-.44h13.38a1.31,1.31,0,0,1,1.43,1.44v5.5a18.61,18.61,0,0,1-2,8.81A14.27,14.27,0,0,1,142,69,18.28,18.28,0,0,1,132.93,71.12Z"/><path class="cls-2" d="M160,70.5a1.31,1.31,0,0,1-1.38-1.38V39.44a1.35,1.35,0,0,1,.38-1,1.22,1.22,0,0,1,1-.44h1a1.49,1.49,0,0,1,1.43,1.44v2.87q2.25-4.31,8.5-4.31h2.32a1.28,1.28,0,0,1,1.37,1.37v.88a1.34,1.34,0,0,1-.37,1,1.36,1.36,0,0,1-1,.37h-2.69a7.56,7.56,0,0,0-8.13,8.13V69.12a1.25,1.25,0,0,1-.43,1,1.37,1.37,0,0,1-1,.38Z"/><path class="cls-2" d="M188.61,71.12a12.42,12.42,0,0,1-5.56-1.25,11,11,0,0,1-4.13-3.37,8,8,0,0,1-1.5-4.69,8.23,8.23,0,0,1,3.32-6.75,18.44,18.44,0,0,1,9.06-3.37l9.87-1.38V48.12a6.51,6.51,0,0,0-2.12-5.25c-1.38-1.25-3.5-1.87-6.38-1.87a10.05,10.05,0,0,0-5.25,1.25,5.65,5.65,0,0,0-2.56,3,2.34,2.34,0,0,1-.62,1.06,1.36,1.36,0,0,1-.88.25H181a1.48,1.48,0,0,1-1-.37,1.52,1.52,0,0,1-.38-1A5.9,5.9,0,0,1,180.86,42a10.23,10.23,0,0,1,3.88-3.25,13.68,13.68,0,0,1,6.43-1.38q6.69,0,9.5,3.19a11.3,11.3,0,0,1,2.82,7.75V69.12a1.31,1.31,0,0,1-1.38,1.38h-1.06a1.31,1.31,0,0,1-1.38-1.38V66.19a11,11,0,0,1-4.06,3.5A14.68,14.68,0,0,1,188.61,71.12Zm.63-3.62a10.05,10.05,0,0,0,7.5-3q2.92-3,2.93-8.63V53.75l-8.06,1.12a19.27,19.27,0,0,0-7.75,2.38,4.94,4.94,0,0,0-2.62,4.25,5,5,0,0,0,2.37,4.44A10.22,10.22,0,0,0,189.24,67.5Z"/><path class="cls-2" d="M214.81,82.37A1.29,1.29,0,0,1,213.43,81V39.37a1.37,1.37,0,0,1,.38-1,1.34,1.34,0,0,1,1-.37h1.06a1.34,1.34,0,0,1,1,.37,1.36,1.36,0,0,1,.37,1v2.94q3.63-4.94,10.5-4.94t9.94,4.32a17.69,17.69,0,0,1,3.44,10.5c0,.41.06,1.1.06,2.06s0,1.64-.06,2.06a18,18,0,0,1-3.44,10.56q-3.18,4.26-9.94,4.25t-10.5-4.93V81a1.28,1.28,0,0,1-1.37,1.37ZM227.37,67.5q5.06,0,7.37-3.19A14.69,14.69,0,0,0,237.31,56c0-.42.06-1,.06-1.75a18,18,0,0,0-2.25-9.5Q232.87,41,227.37,41q-4.94,0-7.44,3.31A13.29,13.29,0,0,0,217.24,52l-.06,2.44.06,2.43A13,13,0,0,0,218.43,62a10,10,0,0,0,3.38,3.94A9.52,9.52,0,0,0,227.37,67.5Z"/><path class="cls-2" d="M251.12,70.5a1.37,1.37,0,0,1-1-.38,1.34,1.34,0,0,1-.37-1V27.5a1.34,1.34,0,0,1,.37-1,1.37,1.37,0,0,1,1-.38h1.07a1.37,1.37,0,0,1,1,.38,1.34,1.34,0,0,1,.37,1V42.31a13.25,13.25,0,0,1,4.25-3.69,13.73,13.73,0,0,1,6.25-1.25q6.12,0,9.44,3.94a14.93,14.93,0,0,1,3.31,10.06V69.12a1.34,1.34,0,0,1-.37,1,1.37,1.37,0,0,1-1,.38h-1.07a1.37,1.37,0,0,1-1-.38,1.34,1.34,0,0,1-.37-1V51.69c0-3.38-.84-6-2.5-7.88s-4-2.81-7.06-2.81a9.39,9.39,0,0,0-7.19,2.87c-1.79,1.88-2.69,4.48-2.69,7.82V69.12a1.34,1.34,0,0,1-.37,1,1.37,1.37,0,0,1-1,.38Z"/><path class="cls-2" d="M315.74,74.56c-.63,0-1.3-.48-2-1.44L311,69.31a19.88,19.88,0,0,1-8.75,1.81q-16.07,0-16.5-17.25c-.05-1.25-.07-3-.07-5.25s0-4,.07-5.25q.24-8.49,4.62-12.87t11.88-4.38q7.5,0,11.87,4.38t4.63,12.87q.12,3.75.12,5.25t-.12,5.25q-.32,8.94-4.57,13.13l4,5.62a1.5,1.5,0,0,1,.19.69,1.26,1.26,0,0,1-1.25,1.25Zm-13.5-7.19A11.92,11.92,0,0,0,311.17,64q3.38-3.44,3.63-10.44c.08-2.5.12-4.14.12-4.94s0-2.43-.12-4.93q-.26-7-3.63-10.38a13.32,13.32,0,0,0-17.87,0q-3.37,3.38-3.63,10.38c0,1.25-.06,2.89-.06,4.93s0,3.69.06,4.94q.25,7,3.57,10.44A12.16,12.16,0,0,0,302.24,67.37Z"/><path class="cls-2" d="M330.18,70.5a1.29,1.29,0,0,1-1.37-1.38v-41a1.36,1.36,0,0,1,.37-1,1.34,1.34,0,0,1,1-.37h1.19a1.34,1.34,0,0,1,1,.37,1.36,1.36,0,0,1,.37,1V66.75h21.57a1.29,1.29,0,0,1,1.43,1.44v.93a1.25,1.25,0,0,1-.43,1,1.37,1.37,0,0,1-1,.38Z"/></svg>