<svg id="Layer_1" data-name="Layer 1" xmlns="http://www.w3.org/2000/svg" viewBox="0 0 1062 278"><defs><style>.cls-1{fill:#001e2b;}</style></defs><path class="cls-1" d="M82.32,28.64C71.54,15.85,62.25,2.85,60.35.15a.48.48,0,0,0-.7,0c-1.9,2.7-11.18,15.7-22,28.49C-54.9,146.72,52.26,226.41,52.26,226.41l.9.6C54,239.3,56,257,56,257h8s2-17.6,2.79-30l.9-.7C67.74,226.41,174.91,146.72,82.32,28.64ZM60,224.61s-4.79-4.1-6.09-6.2v-.2L59.65,89.63a.3.3,0,0,1,.6,0L66,218.21v.2C64.75,220.51,60,224.61,60,224.61Z"/><path class="cls-1" d="M260.5,198.37,215.85,89.3l-.1-.3H181v7.33h5.61a6.33,6.33,0,0,1,4.5,1.91,6.27,6.27,0,0,1,1.81,4.52l-1,109.77a6.41,6.41,0,0,1-6.21,6.33L180,219v7.23h33.84V219l-3.5-.1a6.41,6.41,0,0,1-6.21-6.33V109.09l48.66,117.1a4.4,4.4,0,0,0,8.21,0L308.56,111.7l.7,100.83A6.44,6.44,0,0,1,303,219h-3.61v7.23H339V219h-5.41a6.49,6.49,0,0,1-6.3-6.33L327,102.86a6.43,6.43,0,0,1,6.21-6.43l5.81-.1V89H305.16Z"/><path class="cls-1" d="M571.87,217.05a6.07,6.07,0,0,1-1.71-4.43V158.7c0-10.27-3-18.31-9-24S547,126,536.73,126c-14.35,0-25.69,5.84-33.63,17.3a.76.76,0,0,1-.7.31.48.48,0,0,1-.5-.51l-3.71-14.38H492l-16,9.15v5h4.12a6.69,6.69,0,0,1,4.61,1.51,5.93,5.93,0,0,1,1.71,4.63v63.48a5.86,5.86,0,0,1-6.12,6.14h-4V226H513v-7.34h-4a5.86,5.86,0,0,1-6.13-6.14V170.47a40.77,40.77,0,0,1,3.42-15.9,31.9,31.9,0,0,1,10.24-12.78,26.6,26.6,0,0,1,16.16-4.92c7,0,12.35,2.21,15.66,6.64s5,10.16,5,17v51.91a5.85,5.85,0,0,1-6.13,6.13h-4v7.35H580v-7.35h-4A5,5,0,0,1,571.87,217.05Z"/><path class="cls-1" d="M907.55,97.21A71,71,0,0,0,873.79,89H826v7.31h4.68a6.79,6.79,0,0,1,5,2.3,7.12,7.12,0,0,1,2.29,5V211.38a7.12,7.12,0,0,1-2.29,5,7,7,0,0,1-5,2.3H826V226h47.79a71,71,0,0,0,33.76-8.21,61.63,61.63,0,0,0,24.39-23.64c6-10.21,9.06-22.53,9.06-36.55s-3.09-26.24-9.06-36.55A62.12,62.12,0,0,0,907.55,97.21Zm14.23,60.19c0,12.82-2.29,23.63-6.77,32.35S904.56,205,897.19,209.18a48.38,48.38,0,0,1-24.29,6.31h-9.66a6.8,6.8,0,0,1-5-2.31,7.08,7.08,0,0,1-2.29-5V106.53a6.86,6.86,0,0,1,2.29-5,7,7,0,0,1,5-2.31h9.66a48.38,48.38,0,0,1,24.29,6.31c7.37,4.21,13.34,10.72,17.82,19.43S921.78,144.68,921.78,157.4Z"/><path class="cls-1" d="M1054,164.71c-4.42-5.11-13-9.41-23-11.72,13.85-6.91,21-16.62,21-29.14a31.12,31.12,0,0,0-5.42-18.13,36,36,0,0,0-15.25-12.31A55.65,55.65,0,0,0,1008.5,89H954.4v7.31h4.32a6.89,6.89,0,0,1,5,2.3,7.09,7.09,0,0,1,2.3,5V211.38a7.93,7.93,0,0,1-7.32,7.31H954V226h58.72a66.45,66.45,0,0,0,24.79-4.51,40.26,40.26,0,0,0,17.87-13.22c4.41-5.8,6.62-12.92,6.62-21.13C1061.9,178.33,1059.29,170.82,1054,164.71Zm-67.35,48.57a7.07,7.07,0,0,1-2.31-5V159.9h27.91q14.74,0,22.58,7.51t7.83,19.53a30.33,30.33,0,0,1-3.41,13.82,26.3,26.3,0,0,1-10.34,10.62c-4.52,2.7-10.14,4.11-16.66,4.11H991.64A7.15,7.15,0,0,1,986.62,213.28Zm-2.21-63.69v-43a6.85,6.85,0,0,1,2.31-5,7.09,7.09,0,0,1,5-2.3H1005c9.53,0,16.56,2.4,21,7s6.62,10.72,6.62,18.13c0,7.61-2.11,13.72-6.22,18.33s-10.34,6.81-18.57,6.81Z"/><path class="cls-1" d="M432,132.39A52.58,52.58,0,0,0,406.5,126a51.23,51.23,0,0,0-25.5,6.39,47.15,47.15,0,0,0-18.23,18A52.24,52.24,0,0,0,356,177a52.24,52.24,0,0,0,6.77,26.65,47.15,47.15,0,0,0,18.23,18A52.58,52.58,0,0,0,406.5,228a51.23,51.23,0,0,0,25.5-6.39,47.09,47.09,0,0,0,18.23-18A52.24,52.24,0,0,0,457,177a52.24,52.24,0,0,0-6.77-26.65A47.09,47.09,0,0,0,432,132.39ZM439.37,177c0,12.28-3,22.26-9,29.44s-14,10.88-23.91,10.88-18-3.69-23.9-10.88-9-17.16-9-29.44,3-22.26,9-29.44,13.94-10.88,23.9-10.88,18,3.69,23.91,10.88S439.37,164.72,439.37,177Z"/><path class="cls-1" d="M785,132.39A52.58,52.58,0,0,0,759.5,126a51.23,51.23,0,0,0-25.5,6.39,47.15,47.15,0,0,0-18.23,18A52.24,52.24,0,0,0,709,177a52.24,52.24,0,0,0,6.77,26.65,47.15,47.15,0,0,0,18.23,18A52.58,52.58,0,0,0,759.5,228a51.23,51.23,0,0,0,25.5-6.39,47.09,47.09,0,0,0,18.23-18A52.24,52.24,0,0,0,810,177a52.24,52.24,0,0,0-6.77-26.65A47.77,47.77,0,0,0,785,132.39ZM792.37,177c0,12.28-3,22.26-9,29.44s-13.95,10.88-23.91,10.88-18-3.69-23.91-10.88-9-17.16-9-29.44,3-22.26,9-29.44,13.95-10.88,23.91-10.88,18,3.69,23.91,10.88S792.37,164.72,792.37,177Z"/><path class="cls-1" d="M642.64,126a47.25,47.25,0,0,0-22,5.11,38.85,38.85,0,0,0-15.55,13.94,35.36,35.36,0,0,0-5.61,19.25,33.93,33.93,0,0,0,4.31,17,38.67,38.67,0,0,0,11.43,12.43l-14.34,19.45a7.85,7.85,0,0,0,6.32,12.53h4.11a30.1,30.1,0,0,0-9.43,9.73A25.65,25.65,0,0,0,598,248.92c0,8.63,3.81,15.75,11.34,21.06s17.85,8,31,8a74.76,74.76,0,0,0,25.78-4.41c8-2.91,14.55-7.22,19.36-12.83a29.87,29.87,0,0,0,7.43-20.26c0-8.22-3-14-10-19.65-6-4.71-15.45-7.22-27.19-7.22H615.56a.39.39,0,0,1-.21-.1s-.1-.2,0-.3l10.44-14a36.41,36.41,0,0,0,7.72,2.61,40.38,40.38,0,0,0,8.13.7,49,49,0,0,0,22.67-5.11,40.1,40.1,0,0,0,15.75-13.94,34.61,34.61,0,0,0,5.71-19.25c0-7.42-3.61-21-13.44-27.87a.1.1,0,0,1,.1-.1l21.57,2.4v-9.92H659.49A55.7,55.7,0,0,0,642.64,126Zm12,62.76a25.88,25.88,0,0,1-12,3.11A25.08,25.08,0,0,1,625,184.76c-5-4.72-7.52-11.64-7.52-20.46S620,148.56,625,143.85a25,25,0,0,1,17.66-7.12,24.86,24.86,0,0,1,21.47,12.33,29.9,29.9,0,0,1,3.71,15.24c0,6.12-1.21,11.23-3.71,15.24A23.76,23.76,0,0,1,654.68,188.76Zm-27.19,36.9h27.19c7.52,0,12.34,1.51,15.55,4.71A17.16,17.16,0,0,1,675,242.91a21.59,21.59,0,0,1-8.73,17.85c-5.81,4.51-13.64,6.81-23.27,6.81-8.43,0-15.45-1.9-20.56-5.51s-7.73-9.13-7.73-16.14a21.6,21.6,0,0,1,3.61-12.14A23,23,0,0,1,627.49,225.66Z"/></svg>