<svg id="Layer_1" data-name="Layer 1" xmlns="http://www.w3.org/2000/svg" xmlns:xlink="http://www.w3.org/1999/xlink" viewBox="0 0 146.59 38.85"><defs><style>.cls-1{fill-rule:evenodd;}.cls-2{fill:url(#radial-gradient);}</style><radialGradient id="radial-gradient" cx="-871.95" cy="581.08" r="1" gradientTransform="matrix(0, 38.3, 44.12, 0, -25619.58, 33397.31)" gradientUnits="userSpaceOnUse"><stop offset="0" stop-color="#20c6b7"/><stop offset="1" stop-color="#4d9abf"/></radialGradient></defs><path class="cls-1" d="M53.37,13l.12,2.2A6.84,6.84,0,0,1,59,12.63q5.92,0,6,6.8V32H60.79V19.68A3.92,3.92,0,0,0,60,17a3.28,3.28,0,0,0-2.55-.88,4.12,4.12,0,0,0-3.84,2.34V32H49.36V13ZM77.75,32.35a8.8,8.8,0,0,1-6.57-2.56A9.26,9.26,0,0,1,68.66,23v-.53a11.49,11.49,0,0,1,1.1-5.09,8.44,8.44,0,0,1,3.08-3.49,8.12,8.12,0,0,1,4.42-1.24,7.43,7.43,0,0,1,6,2.48q2.11,2.48,2.11,7v1.72H73a5.74,5.74,0,0,0,1.57,3.73A4.72,4.72,0,0,0,78,28.94a5.75,5.75,0,0,0,4.77-2.37l2.3,2.19a7.67,7.67,0,0,1-3,2.65,9.46,9.46,0,0,1-4.27.94Zm-.51-16.29a3.58,3.58,0,0,0-2.83,1.23A6.38,6.38,0,0,0,73,20.71h8.12V20.4A5.19,5.19,0,0,0,80,17.15,3.56,3.56,0,0,0,77.24,16.06ZM94,8.36V13h3.35v3.16H94V26.76a2.36,2.36,0,0,0,.43,1.57,2,2,0,0,0,1.54.49,6.82,6.82,0,0,0,1.49-.18v3.3a10.06,10.06,0,0,1-2.81.41q-4.91,0-4.91-5.43V16.14H86.62V13h3.12V8.35H94ZM105.14,32h-4.26V5h4.26Zm9.17,0h-4.26V13h4.26ZM109.79,8a2.31,2.31,0,0,1,.62-1.64,2.37,2.37,0,0,1,1.78-.65A2.4,2.4,0,0,1,114,6.4,2.27,2.27,0,0,1,114.61,8,2.22,2.22,0,0,1,114,9.65a2.39,2.39,0,0,1-1.79.64,2.37,2.37,0,0,1-1.78-.64A2.25,2.25,0,0,1,109.79,8Zm10.66,24V16.14h-2.89V13h2.89V11.24a6.58,6.58,0,0,1,1.75-4.89,6.71,6.71,0,0,1,4.91-1.72A9.43,9.43,0,0,1,129.5,5l-.1,3.34a8.2,8.2,0,0,0-1.64-.14c-2,0-3.05,1-3.05,3.14V13h3.86v3.16h-3.86V32Zm17.87-6.12L142.18,13h4.54l-7.54,21.9q-1.74,4.8-5.89,4.8a7.61,7.61,0,0,1-2-.32v-3.3l.8,0a4.07,4.07,0,0,0,2.43-.59,3.82,3.82,0,0,0,1.29-2l.62-1.64L129.71,13h4.6l4,12.9Z" transform="translate(-0.13 -0.83)"/><path class="cls-2" d="M27.89,14.14h0a.17.17,0,0,1,0-.1L28.6,9.3l3.62,3.62-3.77,1.61h-.07A1.62,1.62,0,0,0,27.89,14.14Zm5.26-.29L37,17.72c.81.81,1.21,1.21,1.36,1.68a1.29,1.29,0,0,1,0,.21l-9.26-3.93h0s-.08,0-.08-.07.05-.06.08-.07h0Zm5.12,7A7.15,7.15,0,0,1,37,22.28l-4.37,4.37L27,25.47h0s-.1,0-.1-.06a1.71,1.71,0,0,0-.66-1.19.1.1,0,0,1,0-.09v0l1.07-6.52v0c0-.05,0-.1.06-.1a1.74,1.74,0,0,0,1.16-.67l0,0a.12.12,0,0,1,.1,0l9.65,4.08Zm-6.62,6.8-7.19,7.19,1.23-7.56h0s0,0,0,0,0,0,.06,0h0a1.89,1.89,0,0,0,.7-.52.15.15,0,0,1,.09-.06h0l5.06,1Zm-8.71,8.71-.81.81-9-12.94v0a.14.14,0,0,1,0-.06l0,0h0l.08-.13,0,0h0a.1.1,0,0,1,.05-.06h.07l9.92,2,.08,0s0,0,0,.05a1.75,1.75,0,0,0,1,1.17s0,0,0,.08,0,0,0,.05C24.3,28.06,23.23,34.59,22.94,36.36Zm-1.69,1.69a3.83,3.83,0,0,1-1.35,1,2.08,2.08,0,0,1-1.21,0A5.07,5.07,0,0,1,17,37.72l-9-9,2.35-3.64a.1.1,0,0,1,0-.05s.06,0,.09,0A2.49,2.49,0,0,0,12.15,25s0,0,.07,0l0,0,9,13.06ZM7.16,27.86,5.1,25.8l4.07-1.74h0s0,0,.07.07l.13.18v0s0,0,0,.05L7.16,27.86Zm-3-3L1.58,22.28a13.4,13.4,0,0,1-1-1.05l7.93,1.65h0s.1,0,.1.06-.06.07-.11.09h0Zm-4.06-5a2,2,0,0,1,.09-.49,5,5,0,0,1,1.35-1.68l3.34-3.34,4.63,6.69s.06.08,0,.11a2.88,2.88,0,0,0-.4.52.18.18,0,0,1-.05.07h0L.13,19.89Zm5.68-6.4L10.3,9l3.33,1.41,2.29,1a.13.13,0,0,1,.07.06v.06a2,2,0,0,0,.52,1.82s0,.08,0,.11v0l-4.56,7.06a.1.1,0,0,1,0,.05h-.09a2,2,0,0,0-.54-.07,3.19,3.19,0,0,0-.52.06h0s0,0-.05,0a.1.1,0,0,1,0-.05l-4.81-7Zm5.4-5.4L17,2.28A5.07,5.07,0,0,1,18.69.92a2.08,2.08,0,0,1,1.21,0c.47.15.87.55,1.67,1.36l1.26,1.26L18.7,9.94a.1.1,0,0,1,0,.05.1.1,0,0,1-.09,0,2.11,2.11,0,0,0-1.92.37s-.07,0-.1,0C16,10.12,11.81,8.35,11.21,8.09Zm12.5-3.67,3.82,3.81-.92,5.7v0a0,0,0,0,1,0,0,.05.05,0,0,1-.05,0,1.85,1.85,0,0,0-.54.28h0s0,0,0,0h0l-5.82-2.47h0s-.08,0-.08-.08a2.15,2.15,0,0,0-.31-.91s-.06-.09,0-.14ZM19.78,13l5.46,2.31a.11.11,0,0,1,.07.06.06.06,0,0,1,0,.06,1.09,1.09,0,0,0,0,.26v.15s0,.06-.07.07h0L13.05,21.11s0,0-.05,0S13,21,13,21l0,0L17.52,14h0s0-.09.1-.09h.05L18,14a2,2,0,0,0,1.69-.89l0,0A.12.12,0,0,1,19.78,13Zm-6.25,9.19L25.81,17l0,0a2,2,0,0,0,.18.15l0,0s.05,0,.05.05v0L25.05,23.7v0c0,.05,0,.1-.06.1a1.73,1.73,0,0,0-1.37.85h0a.12.12,0,0,1-.05,0h-.07l-9.79-2S13.55,22.21,13.53,22.21Z" transform="translate(-0.13 -0.83)"/></svg>