<svg id="Layer_1" data-name="Layer 1" xmlns="http://www.w3.org/2000/svg" viewBox="0 0 887.27 308.88"><path class="text-path" d="M119.62,19.07c-.55.05-2.31.22-3.88.35-36.36,3.28-70.42,22.89-92,53a126.71,126.71,0,0,0-22.6,55.92C.13,135.42,0,137.49,0,147s.13,11.6,1.15,18.64A128.55,128.55,0,0,0,88.71,269.08a135.86,135.86,0,0,0,27,5.6,233.2,233.2,0,0,0,24.52,0c17.19-1.9,31.76-6.15,46.12-13.49,2.2-1.12,2.63-1.42,2.33-1.67s-9.59-12.74-20.85-27.95l-20.47-27.65L121.74,166C107.63,145.1,96,128,95.92,128s-.2,16.84-.25,37.44c-.08,36.05-.1,37.5-.55,38.35a4.53,4.53,0,0,1-2.2,2.28c-.81.4-1.51.47-5.28.47H83.31l-1.15-.72A4.59,4.59,0,0,1,80.48,204L80,202.9l0-50.17.08-50.19.77-1A6.89,6.89,0,0,1,82.71,100c1-.5,1.42-.55,5.75-.55,5.11,0,6,.2,7.28,1.65.38.4,14.27,21.31,30.88,46.51s39.34,59.6,50.5,76.49l20.27,30.7,1-.68a131.33,131.33,0,0,0,26.3-23.07,127.35,127.35,0,0,0,30.13-65.42c1-7,1.15-9.11,1.15-18.64s-.13-11.61-1.15-18.65A128.55,128.55,0,0,0,167.29,25a135.14,135.14,0,0,0-26.65-5.58c-2.4-.25-18.95-.52-21-.32ZM172,96.48a5,5,0,0,1,2.53,3c.2.65.25,14.56.2,45.91l-.08,45-7.93-12.16-8-12.16V133.31c0-21.14.1-33,.25-33.6a5.11,5.11,0,0,1,2.48-3.15c1-.53,1.4-.58,5.33-.58C170.54,96,171.19,96,172,96.48Z"/><path class="text-path" d="M496.08,80.56h96.56v7.68H504.93V146h82.48v7.68H504.93V217.1h88.72v7.68H496.08Zm105.22,0h10.26L657,144,703.5,80.56,766.71,0,662.86,150.65l53.51,74.13H705.71L657,157.31l-48.88,67.47H597.67l53.92-74.13Zm118.89,7.68V80.56h110v7.68h-50.7V224.78h-8.85V88.24ZM375.27,80.56h11.06L538.91,308.88l-63-84.1L384.52,91.47l-.4,133.31h-8.85ZM829.35,214.79a3.22,3.22,0,1,1,3.16-3.22A3.14,3.14,0,0,1,829.35,214.79Zm8.7-8.46h4.73c.07,2.57,1.94,4.29,4.7,4.29,3.08,0,4.82-1.85,4.82-5.32v-22h4.82v22c0,6.25-3.61,9.85-9.6,9.85C841.9,215.17,838.05,211.68,838.05,206.33Zm25.38-.28h4.78c.41,3,3.3,4.83,7.45,4.83,3.88,0,6.72-2,6.72-4.76,0-2.37-1.81-3.8-5.92-4.77l-4-1c-5.62-1.31-8.18-4-8.18-8.6,0-5.54,4.52-9.22,11.3-9.22,6.31,0,10.92,3.68,11.2,8.92h-4.69c-.46-2.87-3-4.66-6.57-4.66-3.81,0-6.35,1.84-6.35,4.64,0,2.22,1.64,3.49,5.68,4.44l3.43.84c6.37,1.49,9,4.08,9,8.75,0,5.95-4.61,9.68-12,9.68C868.41,215.17,863.78,211.62,863.43,206.05Z"/></svg>