<svg id="Layer_1" data-name="Layer 1" xmlns="http://www.w3.org/2000/svg" viewBox="0 0 124.73 28"><defs><style>.cls-1{fill:#f03e2f;}.cls-2{fill:#f9b1ab;}.cls-3{fill:#fff;}.cls-4{fill:#f37368;}.cls-5{fill:#f7a199;}.cls-6{fill:#f04939;}</style></defs><rect class="cls-1" width="28" height="28" rx="3"/><path class="cls-1" d="M0,0"/><path class="cls-2" d="M17.94,16.8a4.09,4.09,0,0,1,2,3.8,6.84,6.84,0,0,1-5.46,2.22c-3.94,0-6.7-1.9-7.3-5.21h3.78c.48,1.52,1.77,2.22,3.5,2.22,2.1,0,3.49-1.1,3.52-3"/><path class="cls-2" d="M0,0"/><path class="cls-3" d="M8.63,7.12c0,2.43,1.51,3.89,4.52,4.65l3.2.75c2.86.66,4.6,2.3,4.6,4.95a5.21,5.21,0,0,1-1.05,3.2c0-2.66-1.38-4.09-4.68-5L12.08,15c-2.53-.56-4.47-1.91-4.47-4.8a5.12,5.12,0,0,1,1-3.07"/><path class="cls-2" d="M8.61,7.06a6.49,6.49,0,0,1,5.28-2.3c4,0,6.32,2.12,6.9,5.08H17.17A3.12,3.12,0,0,0,14,7.75c-2,0-3.3,1.15-3.38,2.93A3.92,3.92,0,0,1,8.61,7.06Z"/><polygon class="cls-4" points="103.09 11.49 103.09 22.32 99.6 22.32 99.6 9.8 103.09 11.49"/><path class="cls-5" d="M53.76,20.31l2.61,2.27,11-5.74-1.13-2.73Zm45.84-7,8.86-4.59L107,6.14,99.6,9.8Z"/><path class="cls-4" d="M74.67,10.65V22.32H71.33V5.68ZM53.76,20.31l2.61,2.27,5-12.59L59.78,5.68Z"/><path class="cls-6" d="M59.78,5.68h3.44l6.37,16.64H66.05Zm15.4,0L82.51,17v5.28L71.33,5.68Zm13.63,0h3.46V22.32H88.81ZM99.6,8.74H94.28V5.68H106.7l1.76,3.06H99.6Z"/><polyline class="cls-5" points="118.7 16 118.7 22.32 115.27 22.32 115.27 16"/><polygon class="cls-6" points="121.08 5.68 115.27 16 118.7 16 124.73 5.68 121.08 5.68"/><polygon class="cls-4" points="115.27 16 109.26 5.68 113.04 5.68 117.08 12.75 115.27 16"/><path class="cls-6" d="M40.85,7.62c0,2.3,1.43,3.68,4.29,4.41l3,.7c2.72.63,4.36,2.18,4.36,4.7a4.86,4.86,0,0,1-1,3c0-2.52-1.31-3.87-4.43-4.7l-3-.67c-2.39-.54-4.23-1.82-4.23-4.55a4.82,4.82,0,0,1,1-2.91"/><polygon class="cls-4" points="82.51 16.19 82.51 5.68 85.86 5.68 85.86 22.32 82.51 22.32 82.51 16.19"/><path class="cls-4" d="M49.67,16.8a4,4,0,0,1,1.86,3.65,6.39,6.39,0,0,1-5.16,2.13c-3.7,0-6.34-1.84-6.9-5H43a3.13,3.13,0,0,0,3.32,2.13c2,0,3.29-1,3.32-2.9M40.85,7.6a6.15,6.15,0,0,1,5-2.18c3.81,0,6,2,6.54,4.82H49a2.94,2.94,0,0,0-3.05-2c-1.86,0-3.12,1.09-3.19,2.78A3.72,3.72,0,0,1,40.85,7.6Z"/></svg>