<svg data-name="Layer 1" xmlns="http://www.w3.org/2000/svg" viewBox="0 0 132 132">
  <path d="M66 0a66 66 0 1 0 66 66A66 66 0 0 0 66 0Zm32.2 95.14a5.76 5.76 0 0 1-5 2.94 5.82 5.82 0 0 1-2.8-.73 69.05 69.05 0 0 0-54.63-5.52 5.74 5.74 0 0 1-3.51-10.93A80.59 80.59 0 0 1 96 87.34a5.72 5.72 0 0 1 2.2 7.8Zm7.9-20a5.73 5.73 0 0 1-5.1 3.04 5.61 5.61 0 0 1-2.65-.65 90.56 90.56 0 0 0-66.59-6.67 5.74 5.74 0 0 1-3.18-11 101.87 101.87 0 0 1 75.08 7.53 5.74 5.74 0 0 1 2.44 7.71Zm2.9-16.72a5.89 5.89 0 0 1-2.56-.6A111.84 111.84 0 0 0 28 49.88a5.74 5.74 0 1 1-2.95-11.09 123.32 123.32 0 0 1 86.47 8.75A5.74 5.74 0 0 1 109 58.42Z" fill="#1ed760"/>
</svg>
