<svg id="Layer_1" data-name="Layer 1" xmlns="http://www.w3.org/2000/svg" viewBox="0 0 642.69 132.43"><defs><style>.cls-1,.cls-3{fill:#3178c6;}.cls-2{fill:#fff;fill-rule:evenodd;}.cls-3{font-size:110px;font-family:SegoePro, Segoe Pro;}.cls-4{letter-spacing:-0.06em;}</style></defs><rect class="cls-1" width="128" height="128" rx="6"/><path class="cls-2" d="M74.26,99.47v14a29.35,29.35,0,0,0,8.06,2.63,52.6,52.6,0,0,0,9.82.88,45.79,45.79,0,0,0,9.54-1,23.56,23.56,0,0,0,7.93-3.18,16.13,16.13,0,0,0,5.4-5.79,20.39,20.39,0,0,0,.85-15.51,15.56,15.56,0,0,0-3.27-5.11,23.9,23.9,0,0,0-5.14-4,54.43,54.43,0,0,0-6.75-3.35c-1.84-.76-3.48-1.5-4.94-2.22a24.41,24.41,0,0,1-3.71-2.19,9.42,9.42,0,0,1-2.36-2.36,5,5,0,0,1-.83-2.83,4.76,4.76,0,0,1,.74-2.61,6.49,6.49,0,0,1,2.1-2A11.12,11.12,0,0,1,95,63.59a19.6,19.6,0,0,1,4.37-.46,26.85,26.85,0,0,1,3.69.27,27.46,27.46,0,0,1,3.91.81,26.11,26.11,0,0,1,3.83,1.38,20.69,20.69,0,0,1,3.43,1.93V54.41a34.33,34.33,0,0,0-7-1.82A57.21,57.21,0,0,0,98.6,52a40.57,40.57,0,0,0-9.44,1.07,24.06,24.06,0,0,0-7.84,3.36A16.69,16.69,0,0,0,76,62.23a17.12,17.12,0,0,0-2,8.44,16.39,16.39,0,0,0,3.61,10.7q3.6,4.42,10.94,7.49c1.92.79,3.72,1.56,5.38,2.32a29.75,29.75,0,0,1,4.3,2.37,11.38,11.38,0,0,1,2.86,2.67,5.47,5.47,0,0,1,1,3.29,5.09,5.09,0,0,1-.65,2.52,5.8,5.8,0,0,1-2,2,11.17,11.17,0,0,1-3.32,1.34,20.05,20.05,0,0,1-4.66.48,26.62,26.62,0,0,1-9-1.6A27.07,27.07,0,0,1,74.26,99.47ZM50.7,64.55H69V53H18V64.55H36.21V116H50.7Z"/><text class="cls-3" transform="translate(145.49 101.38)"><tspan class="cls-4">T</tspan><tspan x="51.56" y="0">ypeScript</tspan></text></svg>