<?xml version="1.0" standalone="no"?>
<!DOCTYPE svg PUBLIC "-//W3C//DTD SVG 20010904//EN"
 "http://www.w3.org/TR/2001/REC-SVG-20010904/DTD/svg10.dtd">
<svg version="1.0" xmlns="http://www.w3.org/2000/svg"
 width="912.000000pt" height="912.000000pt" viewBox="0 0 912.000000 912.000000"
 preserveAspectRatio="xMidYMid meet">
<metadata>
Created by potrace 1.14, written by Peter Selinger 2001-2017
</metadata>
<g transform="translate(0.000000,912.000000) scale(0.100000,-0.100000)"
fill="#000000" stroke="none">
<path d="M3736 8548 c-9 -12 -16 -25 -16 -29 0 -4 -22 -55 -50 -113 -27 -58
-50 -111 -50 -116 0 -6 -4 -10 -10 -10 -5 0 -9 -3 -8 -7 2 -10 -36 -95 -228
-501 -24 -50 -44 -94 -44 -97 0 -3 -18 -41 -40 -84 -22 -44 -40 -82 -40 -85 0
-3 -31 -71 -70 -151 -38 -80 -79 -167 -91 -193 -29 -65 -93 -202 -136 -292
-20 -41 -48 -102 -63 -135 -15 -33 -44 -96 -65 -140 -88 -189 -104 -223 -128
-275 -14 -30 -47 -100 -73 -155 -26 -55 -48 -102 -49 -105 -3 -8 -40 -89 -90
-195 -26 -55 -60 -128 -76 -162 -15 -34 -46 -99 -68 -145 -55 -116 -132 -282
-133 -288 -1 -3 -18 -40 -40 -82 -21 -42 -38 -79 -38 -82 0 -3 -27 -63 -60
-133 -66 -138 -77 -161 -140 -298 -24 -49 -62 -130 -85 -180 -23 -49 -56 -119
-73 -155 -16 -36 -47 -101 -67 -145 -21 -44 -50 -107 -65 -140 -35 -76 -97
-208 -166 -353 -30 -62 -54 -120 -54 -128 0 -8 -4 -14 -10 -14 -5 0 -10 -4
-10 -9 0 -6 -18 -49 -41 -98 -22 -48 -51 -110 -64 -138 -13 -27 -45 -95 -71
-150 -26 -55 -48 -102 -49 -105 -1 -6 -25 -57 -91 -197 -24 -51 -57 -120 -73
-155 -16 -35 -48 -103 -71 -153 -68 -146 -78 -170 -78 -179 0 -5 -4 -12 -9
-15 -12 -9 -53 -99 -53 -116 0 -8 -4 -15 -10 -15 -5 0 -10 -4 -10 -9 0 -6 -19
-49 -41 -98 -23 -48 -59 -126 -81 -173 -45 -96 -90 -192 -139 -295 -18 -38
-33 -72 -34 -75 -3 -8 -49 -107 -119 -254 -36 -76 -66 -144 -66 -151 0 -8 -5
-15 -11 -17 -5 -2 -11 -10 -13 -18 -1 -8 -19 -51 -40 -95 -21 -44 -51 -107
-66 -140 -15 -33 -47 -100 -70 -150 -23 -49 -51 -110 -62 -135 -11 -25 -25
-53 -30 -62 -8 -17 46 -18 1074 -18 l1083 0 12 28 c7 15 62 144 123 287 61
143 120 280 131 304 11 24 29 64 39 90 10 25 32 76 49 113 17 36 31 69 31 72
0 5 17 45 65 151 7 17 20 46 28 65 95 221 175 408 187 435 9 20 29 67 69 160
12 28 26 58 31 67 6 10 10 25 10 33 0 8 4 15 8 15 5 0 9 6 9 13 0 6 12 38 26
70 15 31 39 85 53 120 14 34 31 68 36 75 6 6 8 12 5 12 -3 0 8 30 24 68 59
130 66 148 93 212 15 36 35 81 44 100 9 19 17 37 17 40 1 3 11 27 23 53 12 27
22 50 22 52 0 2 13 32 29 67 16 35 35 80 42 101 7 20 17 37 21 37 4 0 7 3 6 8
0 4 2 16 7 27 16 41 128 302 147 345 45 98 57 130 50 130 -4 0 -2 4 4 8 6 4
25 43 44 87 18 44 43 103 55 130 34 74 100 229 100 235 1 3 8 21 17 40 9 19
26 58 38 85 12 28 28 64 35 80 8 17 25 58 39 92 15 35 37 86 50 115 50 110 96
223 95 232 0 5 3 12 8 15 5 3 18 28 29 56 10 27 20 53 22 57 3 7 -84 5 -312
-7 -55 -3 -100 -6 -101 -8 -1 -1 -30 -69 -65 -152 -35 -82 -73 -172 -86 -200
-12 -27 -34 -79 -49 -115 -15 -36 -35 -83 -45 -105 -10 -22 -32 -74 -50 -115
-18 -41 -38 -88 -45 -105 -7 -16 -34 -79 -60 -140 -26 -60 -55 -128 -65 -150
-35 -79 -53 -120 -56 -130 -1 -5 -22 -53 -45 -105 -23 -52 -42 -101 -42 -107
0 -7 -4 -13 -9 -13 -4 0 -8 -4 -8 -10 0 -5 -11 -34 -25 -64 -14 -30 -25 -57
-25 -59 0 -2 -10 -26 -22 -53 -12 -27 -23 -51 -23 -54 0 -3 -8 -21 -17 -40 -9
-19 -38 -84 -63 -145 -26 -60 -56 -130 -67 -155 -20 -44 -40 -91 -43 -100 -1
-3 -7 -18 -15 -35 -18 -42 -30 -70 -105 -246 -36 -85 -72 -167 -80 -184 -22
-50 -196 -454 -200 -465 -5 -16 -45 -108 -80 -185 -14 -31 -37 -86 -40 -95 -1
-3 -14 -32 -29 -65 -15 -33 -29 -64 -30 -70 -1 -5 -14 -36 -29 -69 -15 -32
-27 -60 -27 -62 0 -2 -12 -29 -27 -61 -15 -32 -28 -67 -30 -77 -2 -11 -10 -27
-18 -36 -8 -9 -15 -22 -15 -28 0 -10 -24 -68 -68 -162 -9 -19 -17 -39 -18 -45
-1 -5 -18 -45 -38 -88 -20 -43 -36 -83 -36 -88 0 -5 -3 -9 -7 -10 -30 -4
-1326 -3 -1328 1 -2 3 11 35 28 70 17 36 31 67 32 70 1 3 15 34 32 70 17 36
47 100 67 143 20 42 47 101 61 129 14 28 25 58 25 65 0 7 5 13 10 13 6 0 10 4
10 10 0 5 16 45 36 87 20 43 53 114 74 158 20 44 51 109 68 145 16 36 44 94
60 130 16 36 43 94 60 131 17 36 36 76 41 90 6 13 15 31 20 39 10 16 18 39 19
54 0 5 4 12 9 15 7 5 35 58 37 71 1 3 16 34 33 70 32 67 93 197 154 330 18 41
37 77 41 78 5 2 8 9 8 16 0 13 37 96 133 296 23 47 41 87 42 90 0 3 17 39 37
80 19 41 48 102 63 135 27 59 53 116 155 330 29 61 53 116 53 123 0 6 4 12 9
12 4 0 8 4 8 9 0 6 18 49 41 98 50 107 94 202 143 306 20 42 52 112 72 155 20
42 50 106 67 142 17 36 31 67 32 70 1 3 18 40 38 83 20 42 52 110 71 150 36
78 60 129 150 320 31 65 56 120 56 122 0 3 37 82 136 290 15 33 29 62 29 65 2
6 50 109 107 230 47 98 92 194 148 315 18 39 48 104 67 145 32 69 49 106 133
285 57 121 117 252 146 315 15 36 32 67 36 68 4 2 8 8 8 13 0 10 9 29 85 194
21 44 50 107 65 140 15 33 63 134 105 225 43 91 93 199 112 240 20 41 51 109
71 150 19 41 36 78 36 82 2 19 1 19 226 17 110 -1 115 -3 133 -47 8 -20 33
-75 55 -122 54 -116 94 -202 232 -500 65 -140 137 -295 160 -345 62 -133 85
-184 113 -245 14 -30 42 -91 62 -135 21 -44 50 -108 66 -141 15 -34 45 -99 67
-145 22 -46 62 -133 90 -194 28 -60 70 -153 95 -205 24 -52 54 -117 67 -145
12 -27 38 -84 57 -125 19 -41 46 -100 60 -130 14 -30 41 -89 61 -130 19 -41
47 -102 62 -135 15 -33 42 -91 60 -130 72 -155 129 -278 195 -420 20 -44 47
-102 60 -130 13 -27 44 -95 70 -150 26 -55 48 -106 48 -112 0 -7 4 -13 9 -13
4 0 8 -4 8 -9 0 -5 20 -51 44 -103 47 -101 83 -179 126 -273 33 -72 75 -163
125 -270 31 -67 114 -245 255 -550 15 -33 44 -96 65 -140 20 -44 48 -105 62
-135 14 -30 47 -102 74 -159 27 -57 49 -105 49 -107 0 -1 21 -47 46 -101 26
-54 99 -213 164 -353 65 -140 135 -291 155 -335 20 -44 50 -107 65 -140 16
-33 74 -159 129 -280 56 -121 118 -254 139 -295 l37 -75 198 0 198 -1 -5 22
c-3 12 -33 78 -66 148 -33 69 -60 128 -60 131 0 3 -22 51 -49 107 -26 57 -59
126 -71 153 -13 28 -39 84 -59 125 -19 41 -36 77 -37 80 -1 7 -43 97 -100 215
-26 55 -48 102 -48 105 -1 4 -68 151 -197 426 -20 44 -76 166 -124 270 -48
104 -104 225 -125 269 -21 44 -49 105 -63 135 -59 130 -123 269 -203 438 -24
51 -44 94 -44 96 0 2 -27 61 -60 130 -33 70 -60 128 -60 130 0 2 -24 55 -54
117 -29 63 -63 137 -76 164 -44 96 -83 181 -136 294 -30 62 -54 115 -54 117 0
1 -21 47 -46 101 -25 54 -62 132 -81 173 -19 41 -47 102 -62 135 -16 33 -40
85 -54 115 -14 31 -44 96 -67 145 -23 50 -66 142 -95 205 -29 63 -70 151 -90
195 -21 44 -51 109 -67 145 -17 36 -44 94 -61 130 -17 36 -31 67 -32 70 -3 10
-43 96 -76 165 -18 39 -34 72 -34 75 -1 3 -18 41 -39 85 -45 95 -100 214 -187
403 -17 37 -44 94 -59 127 -15 33 -42 90 -59 128 -78 169 -92 200 -131 282
-23 48 -52 110 -64 138 -13 29 -39 86 -59 127 -35 76 -138 299 -184 400 -14
30 -44 96 -67 145 -24 50 -58 123 -76 163 l-34 72 -397 0 -398 0 -15 -22z"/>
<path d="M4970 8565 c0 -3 46 -103 101 -222 98 -211 119 -255 228 -486 28 -60
51 -110 51 -112 0 -2 24 -54 54 -116 136 -289 180 -383 181 -389 1 -3 19 -43
42 -90 57 -119 106 -224 141 -300 16 -36 44 -96 62 -135 18 -38 53 -113 78
-165 24 -52 58 -124 74 -159 53 -119 62 -136 71 -142 5 -3 7 -9 5 -11 -3 -5
53 -133 73 -168 5 -8 14 -26 20 -40 13 -31 69 -151 184 -395 23 -49 53 -112
65 -140 12 -27 49 -106 81 -174 33 -67 59 -124 59 -126 0 -2 27 -61 61 -132
92 -193 103 -218 104 -223 0 -3 20 -45 44 -95 24 -49 57 -119 73 -155 82 -178
87 -189 217 -463 28 -59 51 -110 51 -112 0 -2 30 -66 66 -142 36 -76 77 -163
91 -193 28 -61 59 -128 126 -270 24 -52 54 -117 67 -145 12 -27 44 -96 71
-152 27 -57 49 -105 50 -108 0 -2 13 -31 28 -62 36 -72 100 -209 135 -287 15
-33 47 -100 70 -150 24 -50 54 -113 66 -141 13 -27 44 -95 70 -150 26 -55 59
-125 73 -155 13 -30 41 -90 61 -132 20 -42 36 -81 36 -86 0 -5 7 -15 15 -22 9
-7 14 -15 11 -17 -2 -3 8 -30 23 -61 41 -82 90 -188 164 -348 36 -78 82 -177
103 -220 95 -204 114 -247 114 -253 0 -4 -374 -7 -830 -7 -457 1 -837 -1 -844
-4 -10 -4 -5 -22 20 -74 19 -38 34 -75 34 -83 0 -7 5 -13 10 -13 6 0 10 -6 10
-12 0 -7 19 -52 42 -100 l41 -88 1053 0 1053 0 -24 54 c-13 30 -42 92 -63 138
-22 45 -54 115 -72 153 -18 39 -48 104 -67 145 -62 132 -115 243 -143 305 -15
33 -44 96 -65 140 -21 44 -50 107 -65 140 -39 84 -104 223 -157 335 -25 52
-46 101 -46 108 0 6 -4 12 -8 12 -4 0 -11 10 -15 23 -4 12 -33 77 -65 145 -33
68 -59 125 -59 127 0 1 -30 65 -66 141 -92 194 -108 228 -109 234 0 3 -6 14
-12 25 -6 11 -36 76 -68 145 -31 69 -72 157 -90 195 -35 74 -90 190 -148 315
-35 75 -77 167 -144 310 -20 41 -48 102 -63 135 -40 86 -96 207 -140 300 -21
44 -55 116 -75 160 -87 186 -110 235 -156 333 -27 57 -49 105 -49 107 0 2 -34
74 -75 160 -41 87 -75 159 -75 161 0 3 -22 51 -49 107 -27 56 -60 127 -74 157
-14 30 -47 102 -74 160 -28 58 -63 132 -78 165 -15 33 -48 103 -73 155 -24 52
-56 120 -70 150 -13 30 -47 102 -74 160 -27 58 -59 125 -70 150 -12 25 -41 88
-66 140 -24 52 -56 120 -69 150 -14 30 -50 106 -79 169 -30 62 -54 115 -54
116 0 2 -31 69 -70 150 -38 81 -70 148 -70 150 0 1 -26 58 -59 126 -67 143
-107 227 -149 319 -16 36 -49 106 -72 155 -23 50 -56 119 -72 155 -64 140
-100 217 -119 253 -11 20 -17 37 -12 37 4 0 3 4 -2 8 -6 4 -30 50 -54 102 -24
52 -60 130 -80 172 l-36 78 -202 0 c-112 0 -203 -2 -203 -5z"/>
<path d="M3854 6998 c-3 -11 -32 -74 -64 -141 -31 -67 -67 -144 -80 -172 -12
-27 -33 -72 -46 -99 -13 -28 -24 -56 -24 -63 0 -7 -3 -13 -7 -13 -5 0 -17 -21
-27 -48 -17 -41 -43 -97 -151 -327 -13 -27 -37 -79 -53 -115 -16 -36 -49 -105
-72 -155 -23 -49 -54 -115 -67 -145 -86 -186 -182 -394 -255 -550 -22 -47 -53
-113 -69 -147 -16 -35 -43 -93 -61 -130 -17 -38 -32 -70 -33 -73 -1 -3 -14
-32 -29 -65 -68 -146 -100 -214 -127 -273 -41 -89 -214 -460 -262 -562 -47
-101 -80 -173 -82 -180 0 -3 -27 -59 -58 -124 -31 -65 -57 -124 -57 -131 0 -7
-7 -18 -15 -25 -8 -7 -15 -16 -15 -21 0 -5 -14 -39 -31 -76 -17 -38 -43 -93
-56 -123 -14 -30 -41 -89 -60 -130 -20 -41 -62 -133 -94 -203 -33 -70 -67
-142 -76 -160 -9 -18 -18 -36 -19 -42 -1 -5 -27 -62 -57 -125 -30 -63 -96
-205 -147 -315 -51 -110 -112 -241 -135 -291 -24 -50 -55 -120 -71 -155 -16
-35 -31 -66 -35 -69 -3 -3 -10 -16 -14 -30 -4 -14 -27 -65 -50 -115 -24 -49
-59 -126 -79 -170 -20 -44 -45 -97 -56 -118 -11 -22 -20 -45 -20 -53 0 -8 -4
-14 -8 -14 -9 0 -33 -60 -27 -70 2 -3 92 -6 200 -6 l196 1 15 25 c7 14 30 61
50 105 20 44 49 107 64 140 15 33 33 75 41 92 8 18 17 33 21 33 5 0 8 7 8 15
0 8 20 56 46 107 25 51 44 93 44 93 -2 0 29 66 102 225 22 47 39 85 38 85 -1
0 21 46 49 102 28 56 51 105 51 108 0 3 17 40 38 83 40 79 42 85 50 114 2 10
9 18 15 18 6 0 8 3 4 6 -3 3 5 27 18 52 21 43 59 124 122 262 14 30 44 93 66
140 22 47 38 85 37 85 -2 0 7 18 19 40 11 22 21 45 21 52 0 7 5 13 10 13 6 0
10 5 10 11 0 6 13 40 30 75 17 35 44 94 61 132 17 37 53 113 80 170 27 57 49
105 49 106 0 4 49 109 127 276 20 41 50 107 68 145 18 39 45 97 61 130 15 33
28 62 29 65 0 3 24 52 51 110 28 58 59 126 70 152 10 27 22 48 27 48 4 0 7 6
7 14 0 7 26 67 57 132 31 66 57 121 58 124 4 12 26 62 75 165 84 178 107 226
138 295 16 36 40 88 53 115 12 28 22 53 21 58 -1 4 3 7 8 7 6 0 10 5 10 10 0
6 17 47 39 93 65 140 110 237 112 245 2 4 29 63 62 132 88 187 109 232 182
390 142 307 130 287 169 286 30 -1 36 -6 52 -41 9 -22 37 -80 61 -130 24 -49
44 -91 44 -92 0 -2 11 -28 24 -58 14 -31 25 -60 25 -65 0 -6 5 -10 10 -10 6 0
10 -5 10 -10 0 -6 15 -43 34 -83 19 -40 44 -94 56 -122 12 -27 37 -80 56 -118
18 -37 33 -70 34 -72 0 -3 20 -46 44 -97 42 -89 55 -118 126 -273 17 -38 47
-101 65 -140 19 -38 34 -73 35 -77 0 -4 15 -36 32 -70 18 -35 33 -65 33 -68 1
-3 20 -45 44 -95 38 -80 61 -129 66 -145 1 -3 20 -43 42 -90 22 -47 52 -110
65 -140 14 -30 44 -93 65 -140 99 -210 117 -249 143 -305 15 -33 37 -82 50
-110 12 -27 42 -90 65 -140 41 -88 62 -133 123 -265 16 -36 49 -105 72 -155
23 -49 53 -114 67 -145 89 -193 144 -310 202 -433 28 -60 51 -110 51 -112 0
-3 21 -49 136 -291 18 -39 47 -101 64 -138 82 -180 164 -357 190 -411 24 -51
89 -191 129 -277 39 -86 77 -169 131 -283 23 -49 60 -130 83 -180 22 -49 43
-92 45 -95 4 -5 393 -8 404 -3 3 2 -15 49 -42 106 -112 239 -140 299 -140 302
0 3 -84 181 -131 279 -10 22 -19 46 -19 53 0 7 -4 13 -10 13 -5 0 -10 5 -10
10 0 6 -21 55 -46 108 -25 53 -47 103 -48 110 -1 7 -8 18 -14 24 -7 7 -12 16
-12 20 0 5 -17 45 -39 91 -21 45 -48 105 -61 132 -12 28 -41 88 -63 135 -23
47 -42 87 -42 90 -1 3 -13 31 -28 64 -15 32 -27 62 -27 67 0 5 -4 9 -10 9 -5
0 -10 6 -10 13 0 7 -11 35 -24 63 -13 27 -36 76 -51 109 -15 33 -47 101 -70
150 -23 50 -53 113 -65 140 -12 28 -39 86 -60 130 -21 44 -48 103 -60 130 -12
28 -44 95 -70 150 -26 55 -57 120 -68 145 -11 25 -39 86 -63 135 -23 50 -43
92 -44 95 0 3 -12 28 -25 55 -13 28 -24 52 -25 55 0 3 -14 32 -29 65 -33 70
-80 171 -126 270 -17 39 -44 97 -60 130 -15 33 -45 96 -65 140 -21 44 -50 107
-65 140 -16 33 -47 101 -70 150 -23 50 -51 110 -63 135 -11 25 -42 91 -69 148
-26 56 -48 107 -48 112 0 6 -4 10 -8 10 -5 0 -9 6 -9 13 0 6 -24 62 -53 122
-64 135 -103 218 -104 225 -1 3 -14 32 -30 65 -16 33 -45 94 -64 135 -19 41
-50 109 -69 150 -101 214 -120 259 -121 274 0 5 -5 12 -12 16 -6 4 -13 13 -14
21 -3 14 -22 56 -114 249 -47 101 -85 182 -87 190 0 3 -11 26 -23 51 l-21 46
-280 0 c-269 1 -281 0 -287 -19z"/>
</g>
</svg>
